<?xml version="1.0" encoding="UTF-8"?>
<svg id="_Слой_1" data-name="Слой 1" xmlns="http://www.w3.org/2000/svg" viewBox="0 0 2049.36 1342.55">
  <defs>
    <style>
      .cls-1 {
        fill: none;
      }

      .cls-1, .cls-2, .cls-3 {
        stroke-width: 0px;
      }

      .cls-3 {
        fill: #09c;
      }
    </style>
  </defs>
  <rect class="cls-2" width="2049.36" height="1342.55"/>
  <path class="cls-1" d="m1246.2,577.35c43.24,0,64.85-14.35,64.85-43.06,0-25.17-21.62-37.75-64.85-37.75h-65.88c-1.74,3.02-3.33,6.1-4.76,9.24v71.58h70.64Z"/>
  <path class="cls-1" d="m1005.25,588.09l1.91,8.85c3.68,17.21,11.18,35.49,19.25,47.58,1.13,1.7,2.28,3.28,3.42,4.71,2.45,3.09,5.17,5.96,8.11,8.63v-86.35c-2.35,1.18-4.8,2.41-7.3,3.67l-25.38,12.92Z"/>
  <path class="cls-1" d="m850.63,352.25c-10.13-8.95-29.17-13.42-57.12-13.42h-42.59v91.44h36.65c15.18,0,27.96-1.19,38.38-3.54l28.83-14.74c7.35-7.51,11.04-16.51,11.04-27.02,0-12.86-5.07-23.77-15.19-32.72Z"/>
  <path class="cls-1" d="m553.67,590.22c-5.39-3.01-12.7-.67-15.07,4.79-2.67,6.44.46,13.14,7.01,15.04,9.06,2.65,16.54-6.46,12.22-14.88-1.03-2-2.86-4.2-4.16-4.96Z"/>
  <path class="cls-1" d="m814.79,1201.68c-5.33-4.46-5.81-4.41-16.31.98l-9.46,4.85-.72,4.12c-.65,3.47-.35,4.84,1.79,9.01,2.14,4.17,3.08,5.21,6.28,6.71,5.15,2.53,9.42,2.36,14.79-.4,5.81-2.88,9.1-8.32,8.84-14.36-.25-5.04-1.61-7.88-5.19-10.91Z"/>
  <polygon class="cls-1" points="1637.94 930.74 1720.79 930.74 1679.15 783.38 1637.94 930.74"/>
  <path class="cls-1" d="m1065.48,674.08c3.3,1.19,6.49,2.18,9.75,3.04h69.75c3.15-3.83,5.99-7.73,8.54-11.69h-105.7c5.37,3.46,11.27,6.36,17.65,8.65Z"/>
  <path class="cls-1" d="m367.85,348.25c-24.7,0-44.53,8.75-59.49,26.23-14.97,17.49-22.44,46.42-22.44,86.8s7.44,68.78,22.31,86.26c14.87,17.49,35.11,26.23,60.71,26.23s46.69-8.55,61.11-25.69c14.42-17.13,21.63-47.86,21.63-92.21,0-37.32-7.53-64.58-22.58-81.8-15.05-17.22-35.47-25.82-61.25-25.82Z"/>
  <path class="cls-1" d="m1023.04,670.93c-12.18-8.54-15.91-10.28-20.86-9.66l-3.3.48-8.08-17.13-3.39-7.11-4.77-9.98-5.4.34c-6.36.43-13.85-2.11-18.61-6.46-3.01-2.71-3.33-2.75-5.53-1.11-2.79,2.18-6.17,5.5-9.66,9.33-6.84,7.5-14.1,17.05-18.16,24.29-3.97,7.01-7.45,18.37-8.73,28.1-.02.17-.06.35-.08.53-.76,6.2-.7,12.19.1,17.89,15.49,7.92,29.27,17.85,41.32,29.8,6.61,6.56,12.6,13.61,17.98,21.14,17.85,1.08,39.87-2.15,62.06-8.62v-62.33c-4.75-2.7-9.67-5.84-14.9-9.5Z"/>
  <path class="cls-3" d="m920.44,1062.31c-29.47,16.49-66.21,24.74-110.19,24.74s-77.07-6.26-105.43-18.78c3.36,30.52,6.13,51.39,7.78,57.4,3.86,14.43,8.69,26.03,19.84,47.56,11.02,21.49,17.05,30.86,26.8,41.96l4.24,4.91,6.38-2.97c5.74-2.64,6.46-2.81,6.6-1.36,1.11,14.22,15.38,25.23,29.74,23.03,9.38-1.47,18.25-8.45,22.03-17.48,1.77-4.25,1.7-14.85-.11-18.38-1.07-2.09-1.04-2.81.25-3.47,1.04-.53,1.89-.26,2.43.78.41.8,1.64,2.2,2.69,3.08,1.62,1.19,2.75,1.22,6.33-.11,21.4-8.04,198.13-79.97,199.85-81.35,1.2-1.02,2.59-3.25,2.97-5.07.66-2.87.28-4.4-3.89-13.7-3.26-7.34-5.56-11.63-7.72-14.07-.63-.74-1.48-1.95-2.51-3.5-6.16-9.34-18.5-31.51-24.97-45.31-7.46-15.87-12.69-28.2-17.53-43.41-15.5,27.86-37.34,49.7-65.56,65.49Zm-109.3,164.64c-5.37,2.76-9.64,2.92-14.79.4-3.2-1.5-4.14-2.54-6.28-6.71-2.14-4.17-2.44-5.54-1.79-9.01l.72-4.12,9.46-4.85c10.5-5.39,10.99-5.43,16.31-.98,3.58,3.03,4.94,5.87,5.19,10.91.26,6.04-3.03,11.48-8.84,14.36Z"/>
  <path class="cls-3" d="m805.11,769.87c-24.71,0-44.53,8.75-59.49,26.23-14.97,17.49-22.44,46.42-22.44,86.8s7.44,68.78,22.31,86.26c14.87,17.49,35.11,26.23,60.71,26.23s46.68-8.55,61.11-25.69c14.42-17.13,21.63-47.86,21.63-92.21,0-37.32-7.54-64.58-22.58-81.8-15.05-17.22-35.47-25.82-61.25-25.82Z"/>
  <path class="cls-3" d="m805.38,677.12c43.71,0,80.77,7.78,111.19,23.33-.8-5.7-.86-11.69-.1-17.89.02-.17.06-.35.08-.53,1.29-9.74,4.77-21.09,8.73-28.1,4.06-7.24,11.32-16.79,18.16-24.29,3.49-3.83,6.88-7.15,9.66-9.33,2.2-1.63,2.52-1.6,5.53,1.11,4.76,4.34,12.24,6.89,18.61,6.46l5.4-.34,4.77,9.98,3.39,7.11,8.08,17.13,3.3-.48c4.95-.62,8.68,1.12,20.86,9.66,5.22,3.66,10.15,6.8,14.9,9.5v-3.32h37.29c-3.26-.85-6.46-1.85-9.75-3.04-6.38-2.29-12.29-5.19-17.65-8.65h-9.89v-7.59c-2.94-2.66-5.65-5.54-8.11-8.63-1.15-1.43-2.29-3.01-3.42-4.71-8.07-12.09-15.57-30.37-19.25-47.58l-1.91-8.85,25.38-12.92c2.5-1.26,4.95-2.5,7.3-3.67v-243.28l-31.02,15.91c3,11.38,4.51,23.77,4.51,37.2,0,41.39-14.69,73.73-44.08,97.03-29.39,23.31-74.24,34.95-134.55,34.95h-81.89v152.12h-150.23v-123.03l-.18.09-4.59,8.03-4.51,7.99-4.8.13-4.75.21-4.17,5.89c-6.87,9.91-11.85,12.05-30.09,13.41-.19.02-.36.03-.55.05-5.99,10.29-12.86,19.75-20.65,28.34,1.56,3.92,4.19,7.48,7.81,10.08,1.08.76,3.78,3.09,7,5.99,2,1.79,4.19,3.81,6.34,5.8,5.62,5.22,12.41,11.36,15.26,13.55l5.12,4.06.04,7.98c.1,10.08,1.87,28.32,3.6,36.04.68,3.3.99,6.48.76,7.21-.28.65-.2,4.36.16,8.02.23,2.18.35,4.34.41,6.48,10.61-3.52,22.13-4.18,34.58-1.94,18.87,3.38,33.52,11.66,43.97,24.81,1.09-1.15,2.19-2.29,3.32-3.41,36.05-36.05,86.26-54.08,150.62-54.08Zm-259.76-67.06c-6.55-1.91-9.68-8.61-7.01-15.04,2.36-5.47,9.67-7.8,15.07-4.79,1.3.75,3.13,2.95,4.16,4.96,4.32,8.42-3.16,17.53-12.22,14.88Z"/>
  <path class="cls-3" d="m848.32,417.54c2.41-1.75,4.55-3.61,6.46-5.56l-28.83,14.74c9.37-2.11,16.84-5.17,22.37-9.18Z"/>
  <path class="cls-3" d="m1144.98,677.12h22.85c4.2-3.86,8.2-7.76,12.02-11.69h-26.33c-2.54,3.96-5.39,7.86-8.54,11.69Z"/>
  <path class="cls-3" d="m1175.56,496.54v9.24c1.43-3.14,3.02-6.22,4.76-9.24h-4.76Z"/>
  <path class="cls-3" d="m1513.47,255.5c-2.17-4.18-4.61-8.11-5.85-8.9-1.38-.91-5.69-8.73-16.88-30.54l-15.06-29.35,17.48-8.97c12.51-6.42,17.6-9.33,17.95-10.42.66-2.06-30.68-63.17-32.75-63.83-1.09-.35-6.43,2.08-18.94,8.5l-17.48,8.97-1.03-2.01c-1.23-2.4-15.43-11.13-20.28-12.49-7.84-2.26-18.44-1.78-29.85,1.24-4.26,1.17-8.24,2.3-8.8,2.59-.6.21-.94,6.06-.67,12.91l.41,12.45-4.81,2.47-4.89,2.51.04,4.23c.03,2.42-.18,6.17-.48,8.35l-.44,4.08-191.45,98.22h233.98v83.05h-238.11v74.94h73.68c15.73,0,30.5.6,44.34,1.79,3.71-1.94,7.57-3.94,11.53-6,21.9-11.37,47.09-24.36,69.79-35.95l72.05-36.87,6.98-3.57-2.72-5.9-2.68-5.82,26.66-13.68v-52h38.28Z"/>
  <path class="cls-3" d="m975.87,751.39c4.88,6.83,9.25,14.06,13.13,21.69,7.36-3.3,15.81-6.1,25.5-8.42,6.23-1.48,15.2-3.95,19.93-5.57.99-.33,2.17-.77,3.5-1.3v-15.02c-22.19,6.47-44.21,9.7-62.06,8.62Z"/>
  <path class="cls-3" d="m528.4,586.37c3.71-5.18,8.7-7.31,18.63-8.17,1.29-2.21,2.55-4.45,3.75-6.74,15.59-29.65,23.39-67.64,23.39-113.98,0-63.82-17.85-113.44-53.54-148.86-35.69-35.42-86.53-53.13-152.51-53.13s-114.56,18.03-150.62,54.08c-36.06,36.06-54.08,86.44-54.08,151.16,0,46.34,9.1,84.91,27.31,115.73,18.21,30.83,41.95,53.37,71.25,67.6,29.29,14.24,66.29,21.36,111,21.36s80.72-8.25,110.19-24.74c16.6-9.29,31-20.67,43.2-34.14-2.66-6.68-2.17-14.39,2.02-20.18Zm-98.35-38.3c-14.43,17.13-34.79,25.69-61.11,25.69s-45.83-8.74-60.71-26.23c-14.87-17.48-22.31-46.24-22.31-86.26s7.48-69.31,22.44-86.8c14.96-17.48,34.79-26.23,59.49-26.23s46.19,8.61,61.25,25.82c15.05,17.22,22.58,44.48,22.58,81.8,0,44.35-7.21,75.08-21.63,92.21Z"/>
  <path class="cls-2" d="m528.4,586.37c-4.18,5.78-4.67,13.5-2.02,20.18,7.78-8.59,14.66-18.05,20.65-28.34-9.94.86-14.93,2.99-18.63,8.17Z"/>
  <path class="cls-3" d="m626.22,527.48c.03-.93-.87-6.44-1.98-12.15l-1.96-10.34,8.1-4.15,8.1-4.16,8.87,8.41,8.83,8.33,5.52-2.82,102.7-52.43,10.33-5.27,51.2-26.18c-10.42,2.35-23.2,3.54-38.38,3.54h-36.65v-91.44h42.59c27.95,0,47,4.47,57.12,13.42,10.12,8.95,15.19,19.85,15.19,32.72,0,10.51-3.69,19.51-11.04,27.02l37.12-18.98,1.45-.74,2.06,4.01,2.06,4.01,109.46-56.15c-5.99-22.74-17.97-41.38-35.94-55.91-26.96-21.81-67.52-32.72-121.67-32.72h-248.63v286.91l12.73-6.53c11.47-5.88,12.83-6.78,12.81-8.4Z"/>
  <path class="cls-2" d="m750.91,665.43v-152.12h81.89c60.31,0,105.16-11.64,134.55-34.95,29.39-23.3,44.08-55.65,44.08-97.03,0-13.43-1.51-25.83-4.51-37.2l-109.46,56.15-2.06-4.01-2.06-4.01-1.45.74-37.12,18.98c-1.91,1.95-4.05,3.81-6.46,5.56-5.53,4.02-13,7.07-22.37,9.18l-51.2,26.18-10.33,5.27-102.7,52.43-5.52,2.82-8.83-8.33-8.87-8.41-8.1,4.16-8.1,4.15,1.96,10.34c1.11,5.71,2.01,11.22,1.98,12.15.02,1.61-1.34,2.51-12.81,8.4l-12.73,6.53v123.03h150.23Z"/>
  <path class="cls-3" d="m1047.82,665.43h105.7c4.36-6.78,7.83-13.75,10.36-20.87.42-1.17.8-2.33,1.16-3.47,5.86-18.49,4.9-33.86-3.08-49.23-7.28-14.19-20.34-26.03-36.86-33.35-10.23-4.57-19.52-6.66-29.97-6.19-10.36.47-21.86,3.44-36.55,9.01-.71.31-4.32,2.06-9.52,4.63-3.2,1.58-7.01,3.47-11.13,5.53v86.35c3.05,2.77,6.35,5.3,9.89,7.59Z"/>
  <path class="cls-3" d="m1197.74,473.63c-3.45,3.53-6.62,7.2-9.52,11.01-2.92,3.83-5.55,7.81-7.91,11.89h65.88c43.24,0,64.85,12.58,64.85,37.75,0,28.71-21.62,43.06-64.85,43.06h-70.64v-71.58c-10.55,23.18-12.52,49.42-5.16,75.89,3.62,13.03,10.22,28.13,17.78,41.26,3.44,5.98,7.09,11.55,10.75,16.33,1.76,2.24,1.68,2.28-4.09,9.39-4.61,5.66-9.62,11.26-15,16.79h94.98c56.02,0,99-10.02,128.95-30.06,29.94-20.04,44.91-48.97,44.91-86.82,0-46.23-16.34-80.3-49.02-102.2-25.08-16.81-60.45-27.16-106.08-31.07-15.09,7.86-27.82,14.56-35.87,18.88-42.29,22.61-45.45,24.74-59.97,39.48Z"/>
  <polygon class="cls-3" points="1134.34 278.76 1179.68 255.5 1037.94 255.5 1037.94 328.22 1131.94 279.99 1134.34 278.76"/>
  <path class="cls-2" d="m1037.94,665.43h9.89c-3.54-2.28-6.83-4.82-9.89-7.59v7.59Z"/>
  <path class="cls-2" d="m1175.56,413.49v-74.94h238.11v-83.05h-233.98l-45.35,23.26-2.39,1.23-94.01,48.23v243.28c4.12-2.06,7.93-3.95,11.13-5.53,5.2-2.57,8.81-4.31,9.52-4.63,14.69-5.57,26.19-8.55,36.55-9.01,10.45-.47,19.74,1.62,29.97,6.19,16.52,7.33,29.58,19.16,36.86,33.35,7.98,15.37,8.95,30.73,3.08,49.23-.36,1.15-.75,2.3-1.16,3.47-2.54,7.12-6.01,14.08-10.36,20.87h26.33c5.38-5.54,10.39-11.14,15-16.79,5.77-7.11,5.85-7.15,4.09-9.39-3.66-4.78-7.3-10.35-10.75-16.33-7.56-13.13-14.16-28.22-17.78-41.26-7.37-26.46-5.39-52.71,5.16-75.89v-9.24h4.76c2.36-4.08,4.99-8.06,7.91-11.89,2.9-3.81,6.07-7.49,9.52-11.01,14.52-14.74,17.68-16.87,59.97-39.48,8.05-4.32,20.78-11.02,35.87-18.88-13.84-1.19-28.61-1.79-44.34-1.79h-73.68Z"/>
  <path class="cls-3" d="m1761.82,255.5l-161.53,226.78v-226.78h-86.82c2.29,4.42,4.27,9.11,4.18,10.67-.03,1.33,1.42,5.14,3.44,9.07l3.54,6.9-38.09,19.54-11.35,5.82v357.94h125.26l160.69-225.1v225.1h124.81V255.5h-124.12Z"/>
  <path class="cls-2" d="m1524.63,282.13l-3.54-6.9c-2.02-3.93-3.47-7.74-3.44-9.07.09-1.55-1.89-6.25-4.18-10.67h-38.28v52l11.35-5.82,38.09-19.54Z"/>
  <path class="cls-3" d="m953.33,809.1c-4.14,12.46-4.27,23.46-.5,40.88.8,3.74,5.22,25.38,9.97,48.06,10.38,50.42,16.41,77.44,23.2,98.77.69-1.24,1.38-2.47,2.04-3.73,15.58-29.65,23.39-67.64,23.39-113.98,0-41.29-7.48-76.63-22.43-106.04-1.78.8-3.52,1.62-5.17,2.48-15.78,8.19-25.7,19.17-30.5,33.55Z"/>
  <path class="cls-3" d="m916.57,700.45c1.98,14.08,8.59,26.34,19.35,35.23,8.86,7.41,25.42,14.41,36.6,15.46.29.03.6.04.89.07.81.07,1.63.12,2.46.17-5.38-7.53-11.38-14.58-17.98-21.14-12.05-11.95-25.82-21.88-41.32-29.8Z"/>
  <path class="cls-3" d="m689.67,909.02c-4.92-58.56-6.24-65.88-15.01-82.96-3.08-5.9-5.77-10.19-8.87-13.8,3.83-29.26,1.11-52.09-8.17-68.49-1.86-3.28-3.93-6.33-6.18-9.16-33.85,35.8-50.76,85.04-50.76,147.74,0,46.34,9.1,84.91,27.31,115.73,18.21,30.83,41.95,53.37,71.25,67.6,1.83.89,3.68,1.75,5.57,2.58-2.57-23.31-5.48-52.24-8.49-84.48-2.19-23.47-4.44-48.69-6.66-74.78Z"/>
  <path class="cls-2" d="m973.41,751.21c-.3-.02-.6-.04-.89-.07-11.18-1.05-27.73-8.06-36.6-15.46-10.76-8.9-17.37-21.16-19.35-35.23-30.42-15.55-67.48-23.33-111.19-23.33-64.36,0-114.56,18.03-150.62,54.08-1.12,1.12-2.23,2.26-3.32,3.41,2.25,2.83,4.32,5.88,6.18,9.16,9.28,16.39,12,39.23,8.17,68.49,3.1,3.61,5.79,7.9,8.87,13.8,8.76,17.08,10.09,24.4,15.01,82.96,2.21,26.08,4.46,51.3,6.66,74.78,3.01,32.24,5.92,61.17,8.49,84.48,28.37,12.52,63.5,18.78,105.43,18.78,43.98,0,80.72-8.25,110.19-24.74,28.22-15.79,50.06-37.64,65.56-65.49-6.79-21.33-12.82-48.35-23.2-98.77-4.75-22.68-9.17-44.32-9.97-48.06-3.77-17.41-3.64-28.42.5-40.88,4.8-14.38,14.73-25.36,30.5-33.55,1.65-.86,3.39-1.68,5.17-2.48-3.88-7.63-8.25-14.86-13.13-21.69-.83-.05-1.65-.11-2.46-.17Zm-106.11,218.48c-14.43,17.13-34.79,25.69-61.11,25.69s-45.83-8.74-60.71-26.23c-14.87-17.48-22.31-46.24-22.31-86.26s7.48-69.31,22.44-86.8c14.96-17.48,34.78-26.23,59.49-26.23s46.19,8.61,61.25,25.82c15.04,17.22,22.58,44.48,22.58,81.8,0,44.35-7.21,75.08-21.63,92.21Z"/>
  <path class="cls-3" d="m1107.39,681.35c1.13.03,1.42.79,1.42,4.34-.02,2.34-.52,4.52-1.08,4.81-1.76.91-17.26,2.88-22.9,2.94-16.25.17-30.47-3.66-46.89-12.99v62.33c13.76-4.01,27.58-9.26,40.51-15.5,6.31-3.05,12.42-6.33,18.2-9.82,1.33-.8,2.6-1.62,3.89-2.44,18.4-11.61,33.3-24.33,44.45-37.9h-69.75c8.91,2.32,18.38,3.52,32.16,4.23Z"/>
  <path class="cls-3" d="m1101.61,726.15c-6.01,3.66-15.42,8.71-25.43,13.79-14.18,7.2-29.57,14.44-38.24,17.85v329.26h132.62v-165.82h144.92v165.82h133.21v-409.94h-133.21v143.45h-144.92v-143.45h-2.73c-15.13,13.94-32.72,27.46-52.72,40.51-4.39,2.86-8.88,5.7-13.5,8.52Z"/>
  <path class="cls-2" d="m1107.73,690.49c.56-.29,1.06-2.47,1.08-4.81,0-3.55-.29-4.31-1.42-4.34-13.78-.71-23.25-1.91-32.16-4.23h-37.29v3.32c16.41,9.33,30.63,13.16,46.89,12.99,5.64-.06,21.14-2.03,22.9-2.94Z"/>
  <path class="cls-2" d="m1100.53,715.01c-1.29.81-2.57,1.63-3.89,2.44-5.78,3.49-11.88,6.77-18.2,9.82-12.93,6.24-26.75,11.49-40.51,15.5v15.02c8.67-3.42,24.05-10.66,38.24-17.85,10.02-5.08,19.43-10.13,25.43-13.79,4.62-2.82,9.11-5.66,13.5-8.52,20-13.05,37.59-26.57,52.72-40.51h-22.85c-11.15,13.57-26.05,26.28-44.45,37.9Z"/>
  <path class="cls-3" d="m1616.99,677.12l-141.81,409.94h119.04l18.38-67.67h132.36l18.88,67.67h122.08l-141.77-409.94h-127.17Zm20.94,253.62l41.21-147.36,41.64,147.36h-82.85Z"/>
  <polygon class="cls-3" points="565.31 759.05 565.31 677.12 186.75 677.12 186.75 764.64 403.89 764.64 163.43 1002.05 163.43 1087.05 574.17 1087.05 574.17 998.97 322.31 998.97 565.31 759.05"/>
</svg>